<svg width="24" height="8" viewBox="0 0 24 8" fill="none" xmlns="http://www.w3.org/2000/svg">
<path d="M9.10617 0.143208L5.96543 7.89671H3.91111L2.37037 1.698C2.27161 1.3093 2.19259 1.18656 1.91605 1.02289C1.30748 0.71954 0.663393 0.499477 0 0.368244L0.0395062 0.143208H3.33827C3.78417 0.145293 4.16179 0.484244 4.22716 0.941062L5.03704 5.42132L7.05185 0.143208H9.10617ZM17.1457 5.35994C17.1457 3.31416 14.4198 3.19142 14.4395 2.29128C14.4395 2.00487 14.6963 1.71846 15.2691 1.63663C15.9264 1.57307 16.588 1.69317 17.1852 1.98441L17.521 0.347786C16.941 0.11714 16.325 -0.000759202 15.7037 3.67863e-06C13.7877 3.67863e-06 12.4444 1.06381 12.4247 2.55723C12.4049 3.6824 13.3926 4.29614 14.1235 4.66438C14.8543 5.03262 15.1309 5.29857 15.1309 5.62589C15.1309 6.13734 14.5185 6.38283 13.9654 6.38283C13.2704 6.40273 12.5825 6.23343 11.9704 5.89185L11.6148 7.58984C12.2988 7.87418 13.031 8.01331 13.7679 7.999C15.8025 8.01946 17.1259 6.97611 17.1457 5.35994ZM22.2025 7.89671H24L22.4395 0.143208H20.7802C20.4161 0.13869 20.0866 0.366169 19.9506 0.716026L17.0272 7.89671H19.0617L19.4568 6.73062H21.9457L22.2025 7.89671ZM20.0296 5.15537L21.0568 2.25036L21.6494 5.15537H20.0296ZM11.8716 0.143208L10.2716 7.89671H8.3358L9.9358 0.143208H11.8716Z" fill="#1A1F71"/>
</svg>
